# xmcd
#
# Track frame offsets:
#	150
#	22598
#	37353
#	58752
#	84081
#	106391
#	126275
#	144260
#
# Disc length: 2300 seconds
#
# Revision: 1
# Processed by: cddbd v1.4PL0 Copyright (c) Steve Scherf et al.
# Submitted via: audiograbber 1.81.01
#
DISCID=6108fa08
DTITLE=Buffalo Bob - Homage
DYEAR=1998
DGENRE=Blues
TTITLE0=Baby, Please Don't Go
TTITLE1=I Just Want To Make Love To You
TTITLE2=Your Wife's Cheating On Us (Hey, Mr)
TTITLE3=Hideaway and The Stumble
TTITLE4=Body And Fender Man
TTITLE5=Forty Four
TTITLE6=Tatonka Chips
TTITLE7=Hoochie Coochie Man
EXTD=Tatonka Records  © 1998
EXTT0=
EXTT1=
EXTT2=
EXTT3=
EXTT4=
EXTT5=
EXTT6=
EXTT7=
PLAYORDER=
